<?xml version="1.0" encoding="UTF-8" standalone="no"?>
<svg
   xmlns:dc="http://purl.org/dc/elements/1.1/"
   xmlns:cc="http://creativecommons.org/ns#"
   xmlns:rdf="http://www.w3.org/1999/02/22-rdf-syntax-ns#"
   xmlns:svg="http://www.w3.org/2000/svg"
   xmlns="http://www.w3.org/2000/svg"
   xmlns:sodipodi="http://sodipodi.sourceforge.net/DTD/sodipodi-0.dtd"
   xmlns:inkscape="http://www.inkscape.org/namespaces/inkscape"
   width="134.90454mm"
   height="134.9343mm"
   viewBox="0 0 134.90454 134.9343"
   version="1.1"
   id="svg8"
   inkscape:version="1.0.2-2 (e86c870879, 2021-01-15)"
   sodipodi:docname="phone.svg">
  <defs
     id="defs2" />
  <sodipodi:namedview
     id="base"
     pagecolor="#ffffff"
     bordercolor="#666666"
     borderopacity="1.0"
     inkscape:pageopacity="0.0"
     inkscape:pageshadow="2"
     inkscape:zoom="0.35"
     inkscape:cx="294.67508"
     inkscape:cy="351.49659"
     inkscape:document-units="mm"
     inkscape:current-layer="g865"
     inkscape:document-rotation="0"
     showgrid="false"
     fit-margin-top="0"
     fit-margin-left="0"
     fit-margin-right="0"
     fit-margin-bottom="0"
     inkscape:window-width="1920"
     inkscape:window-height="1018"
     inkscape:window-x="-8"
     inkscape:window-y="-8"
     inkscape:window-maximized="1" />
  <metadata
     id="metadata5">
    <rdf:RDF>
      <cc:Work
         rdf:about="">
        <dc:format>image/svg+xml</dc:format>
        <dc:type
           rdf:resource="http://purl.org/dc/dcmitype/StillImage" />
        <dc:title></dc:title>
      </cc:Work>
    </rdf:RDF>
  </metadata>
  <g
     inkscape:label="Layer 1"
     inkscape:groupmode="layer"
     id="layer1"
     transform="translate(-27.867219,-70.789543)">
    <g
       id="g865"
       transform="translate(31.750005,100.54167)">
      <path
         style="fill:#d0d0d0;stroke-width:0.264583"
         d="m 36.743333,78.609596 c -0.329107,-0.419645 -0.319749,-0.429003 0.0999,-0.0999 0.44073,0.345644 0.580888,0.562917 0.363125,0.562917 -0.05494,0 -0.2633,-0.208359 -0.463021,-0.463021 z m -2.38125,-2.116666 c -0.329107,-0.419645 -0.319749,-0.429004 0.0999,-0.0999 0.254662,0.19972 0.463021,0.40808 0.463021,0.46302 0,0.217763 -0.217273,0.07761 -0.562917,-0.363124 z m 8.466667,-8.202083 c -0.329108,-0.419645 -0.319749,-0.429004 0.0999,-0.0999 0.254661,0.19972 0.46302,0.40808 0.46302,0.46302 0,0.217763 -0.217273,0.07761 -0.562916,-0.363124 z m -18.25625,-1.5875 c -0.329107,-0.419645 -0.319748,-0.429004 0.0999,-0.0999 0.254661,0.19972 0.46302,0.40808 0.46302,0.46302 0,0.217763 -0.217273,0.0776 -0.562917,-0.363124 z m 14.83039,-1.5875 -0.641432,-0.727604 0.727604,0.641432 c 0.680056,0.599516 0.84894,0.813776 0.641432,0.813776 -0.04739,0 -0.374814,-0.327422 -0.727604,-0.727604 z M 126.1725,64.58668 c -0.32911,-0.419645 -0.31975,-0.429003 0.0999,-0.0999 0.25466,0.199721 0.46302,0.40808 0.46302,0.463021 0,0.217763 -0.21727,0.07761 -0.56291,-0.363125 z M 22.455834,64.322097 c -0.329106,-0.419645 -0.319748,-0.429003 0.0999,-0.0999 0.254661,0.199721 0.463021,0.40808 0.463021,0.463021 0,0.217762 -0.217273,0.07761 -0.562917,-0.363125 z m 12.19034,-3.96875 -0.911799,-0.992187 0.992188,0.911799 c 0.923507,0.84868 1.11384,1.072576 0.911799,1.072576 -0.04422,0 -0.490699,-0.446485 -0.992188,-0.992188 z M 111.885,53.474181 c -0.32911,-0.419645 -0.31975,-0.429004 0.0999,-0.0999 0.44073,0.345643 0.58089,0.562917 0.36313,0.562917 -0.0549,0 -0.2633,-0.20836 -0.46302,-0.463021 z M 99.152601,48.999474 c 0.181901,-0.0734 0.479557,-0.0734 0.661459,0 0.181901,0.0734 0.03307,0.133453 -0.33073,0.133453 -0.363802,0 -0.51263,-0.06006 -0.330729,-0.133453 z m 1.587499,0 c 0.1819,-0.0734 0.47956,-0.0734 0.66146,0 0.1819,0.0734 0.0331,0.133453 -0.33073,0.133453 -0.3638,0 -0.51263,-0.06006 -0.33073,-0.133453 z m -3.617131,-23.79161 c 0.0127,-0.308227 0.07539,-0.37092 0.159851,-0.159854 0.07643,0.190995 0.06703,0.419198 -0.02088,0.507119 -0.08792,0.08792 -0.150452,-0.06835 -0.138964,-0.347265 z M -4.1540451,6.5767872 c 0,-0.8003645 0.0496,-1.1277864 0.1102229,-0.7276041 0.060623,0.4001822 0.060623,1.055026 0,1.4552082 -0.060623,0.4001823 -0.1102229,0.07276 -0.1102229,-0.7276041 z M 52.143805,1.659948 c 0.0127,-0.3082263 0.07539,-0.3709193 0.159851,-0.1598533 0.07643,0.1909948 0.06703,0.4191979 -0.02088,0.507119 -0.08792,0.087918 -0.150453,-0.068352 -0.138965,-0.3472657 z m 0.02089,-1.43316048 c 0,-0.36380207 0.06006,-0.51263019 0.133453,-0.33072915 0.0734,0.18190103 0.0734,0.47955726 0,0.6614583 -0.0734,0.18190103 -0.133453,0.0330729 -0.133453,-0.33072915 z m 54.321815,-5.62239552 -1.57922,-1.6536458 1.65364,1.5792177 c 1.5361,1.4669581 1.77472,1.7280738 1.57922,1.7280738 -0.0409,0 -0.78507,-0.7441406 -1.65364,-1.6536457 z M 77.473305,-7.362286 c 0.190995,-0.07643 0.419201,-0.067031 0.507119,0.020889 0.08792,0.087919 -0.06835,0.150453 -0.347265,0.1389645 -0.308227,-0.012695 -0.37092,-0.075391 -0.159854,-0.1598525 z m -29.882056,-3.45728 c -0.329107,-0.419644 -0.319749,-0.429002 0.0999,-0.0999 0.44073,0.345644 0.580888,0.562916 0.363125,0.562916 -0.05494,0 -0.2633,-0.20836 -0.463021,-0.463021 z m 68.667981,-0.926042 -0.50403,-0.595312 0.59532,0.504028 c 0.55944,0.473662 0.71576,0.686597 0.50403,0.686597 -0.0502,0 -0.3181,-0.267891 -0.59532,-0.595313 z m -3.43958,-3.439583 -0.50403,-0.595312 0.59531,0.504028 c 0.32743,0.277215 0.59532,0.545106 0.59532,0.595312 0,0.211734 -0.21294,0.05542 -0.6866,-0.504028 z m -76.3409,-9.921874 c -0.329107,-0.419644 -0.319749,-0.429003 0.0999,-0.0999 0.44073,0.345643 0.580887,0.562915 0.363125,0.562915 -0.05494,0 -0.2633,-0.208359 -0.463021,-0.46302 z"
         id="path879" />
      <path
         style="fill:#aeaeae;stroke-width:0.264583"
         d="m 33.568333,75.69918 c -0.329107,-0.419645 -0.319749,-0.429004 0.0999,-0.0999 0.254662,0.19972 0.463021,0.40808 0.463021,0.46302 0,0.217763 -0.217273,0.07761 -0.562917,-0.363124 z M 25.36625,67.497097 c -0.329107,-0.419645 -0.319749,-0.429004 0.0999,-0.0999 0.254661,0.19972 0.46302,0.40808 0.46302,0.46302 0,0.217763 -0.217273,0.07761 -0.562917,-0.363124 z M 40.4475,66.17418 c -0.329108,-0.419645 -0.319749,-0.429003 0.0999,-0.0999 0.254661,0.199721 0.463021,0.40808 0.463021,0.463021 0,0.217762 -0.217274,0.0776 -0.562917,-0.363125 z m 16.024396,-21.298957 -0.777105,-0.859896 0.859896,0.777105 c 0.801544,0.724371 0.981511,0.942687 0.777105,0.942687 -0.04554,0 -0.432488,-0.386953 -0.859896,-0.859896 z M 106.62708,30.818557 c 0,-0.05494 0.20836,-0.2633 0.46302,-0.463021 0.41965,-0.329107 0.429,-0.319749 0.0999,0.0999 -0.34565,0.44073 -0.56292,0.580887 -0.56292,0.363125 z M 121.41,30.455432 c -0.32911,-0.419645 -0.31975,-0.429003 0.0999,-0.0999 0.25466,0.199721 0.46302,0.40808 0.46302,0.463021 0,0.217762 -0.21727,0.07761 -0.56291,-0.363125 z M 7.185528,7.3705372 c 0,-0.3638021 0.060053,-0.5126302 0.1334521,-0.3307292 0.073399,0.181901 0.073399,0.4795573 0,0.6614583 C 7.2455812,7.8831673 7.185528,7.7343392 7.185528,7.3705372 Z M 70.379165,-5.429357 c 0,-0.054942 0.208359,-0.2633016 0.463021,-0.4630208 0.419645,-0.3291075 0.429003,-0.3197492 0.0999,0.099895 -0.345644,0.4407291 -0.562917,0.5808871 -0.562917,0.363126 z m 44.821735,-7.374584 -0.50403,-0.595312 0.59531,0.504028 c 0.55945,0.473661 0.71577,0.686596 0.50403,0.686596 -0.0502,0 -0.3181,-0.26789 -0.59531,-0.595312 z m -1.32292,-1.322917 -0.50403,-0.595312 0.59532,0.504028 c 0.32742,0.277215 0.59531,0.545106 0.59531,0.595312 0,0.211734 -0.21293,0.05542 -0.6866,-0.504028 z m -43.267982,-6.217708 c -0.329107,-0.419644 -0.319749,-0.429002 0.0999,-0.09989 0.44073,0.345643 0.580888,0.562915 0.363125,0.562915 -0.05494,0 -0.2633,-0.208359 -0.463021,-0.463021 z"
         id="path877" />
      <path
         style="fill:#909090;stroke-width:0.264583"
         d="m 99.946351,60.376556 c 0.181899,-0.0734 0.479559,-0.0734 0.661459,0 0.1819,0.0734 0.0331,0.133453 -0.33073,0.133453 -0.363802,0 -0.51263,-0.06005 -0.330729,-0.133453 z M 55.264166,43.684598 c -0.329108,-0.419645 -0.319749,-0.429003 0.0999,-0.0999 0.440729,0.345644 0.580887,0.562917 0.363124,0.562917 -0.05494,0 -0.2633,-0.20836 -0.46302,-0.463021 z M 7.1646396,8.2745311 C 7.1773343,7.9663047 7.2400303,7.9036117 7.3244921,8.1146778 7.4009226,8.3056725 7.3915227,8.5338756 7.3036033,8.6217967 7.2156844,8.7097151 7.1531504,8.5534442 7.1646388,8.2745311 Z m 0.040496,-2.2269105 c 0,-0.5093229 0.05445,-0.7176823 0.121,-0.4630208 0.06655,0.2546614 0.06655,0.6713801 0,0.9260416 -0.06655,0.2546614 -0.121,0.046302 -0.121,-0.4630208 z M 40.787608,1.0205375 c 0,-0.36380209 0.06005,-0.51263021 0.133453,-0.33072917 0.0734,0.18190103 0.0734,0.47955727 0,0.66145827 -0.0734,0.1819011 -0.133453,0.033073 -0.133453,-0.3307291 z"
         id="path875" />
      <path
         style="fill:#6f6f6f;stroke-width:0.264583"
         d="m 120.38541,95.64147 c 0,-0.05494 0.20836,-0.2633 0.46302,-0.463021 0.41965,-0.329107 0.42901,-0.319749 0.0999,0.0999 -0.34564,0.44073 -0.56292,0.580888 -0.56292,0.363125 z M 108.53074,25.494495 c 0.005,-0.436563 0.0647,-0.583126 0.13178,-0.325695 0.0671,0.257432 0.0627,0.61462 -0.01,0.79375 -0.0725,0.179131 -0.12736,-0.03149 -0.12197,-0.468055 z M 90.603144,10.479391 89.826039,9.6194954 90.685935,10.3966 c 0.801545,0.724371 0.981511,0.942687 0.777105,0.942687 -0.04554,0 -0.432488,-0.386953 -0.859896,-0.859896 z M 7.1646396,9.068281 C 7.1773343,8.7600547 7.2400303,8.6973617 7.3244921,8.9084277 7.4009226,9.0994225 7.3915227,9.3276256 7.3036033,9.4155466 7.2156844,9.503465 7.1531504,9.3471942 7.1646388,9.068281 Z M 75.477429,-7.3648993 c 0.257432,-0.067083 0.614619,-0.062672 0.79375,0.0098 0.179131,0.072476 -0.03149,0.1273619 -0.468056,0.1219697 -0.436562,-0.00539 -0.583126,-0.06469 -0.325694,-0.1317736 z"
         id="path873" />
      <path
         style="fill:#4f4f4f;stroke-width:0.264583"
         d="m 93.728643,93.971481 c 0.254662,-0.06655 0.67138,-0.06655 0.926042,0 0.254661,0.06655 0.0463,0.121002 -0.463021,0.121002 -0.509323,0 -0.717682,-0.05445 -0.463021,-0.121002 z m 2.000912,0.0016 c 0.190994,-0.07643 0.4192,-0.06703 0.507118,0.02088 0.08792,0.08792 -0.06835,0.150453 -0.347265,0.138965 -0.308227,-0.0127 -0.37092,-0.07539 -0.159853,-0.159851 z M 117.73958,81.618554 c 0,-0.05494 0.20836,-0.2633 0.46302,-0.463021 0.41965,-0.329107 0.429,-0.319749 0.0999,0.0999 -0.34565,0.44073 -0.56292,0.580888 -0.56292,0.363125 z m -86.138516,-7.903749 -0.777105,-0.859896 0.859896,0.777105 c 0.801544,0.724371 0.981511,0.942687 0.777105,0.942687 -0.04554,0 -0.432488,-0.386954 -0.859896,-0.859896 z m -4.369006,-4.365625 -0.641432,-0.727604 0.727604,0.641432 c 0.680056,0.599517 0.848939,0.813776 0.641432,0.813776 -0.04739,0 -0.374814,-0.327422 -0.727604,-0.727604 z m 4.748775,-11.641666 c -0.329107,-0.419645 -0.319749,-0.429003 0.0999,-0.0999 0.254661,0.19972 0.46302,0.40808 0.46302,0.463021 0,0.217762 -0.217273,0.0776 -0.562917,-0.363125 z m 16.428878,-5.027083 -1.44617,-1.521354 1.521354,1.44617 c 0.836745,0.795393 1.521354,1.480002 1.521354,1.521354 0,0.196387 -0.252999,-0.03279 -1.596538,-1.44617 z M 119.89802,26.155953 c 0,-0.363802 0.0601,-0.51263 0.13345,-0.330729 0.0734,0.181901 0.0734,0.479557 0,0.661458 -0.0734,0.181901 -0.13345,0.03307 -0.13345,-0.330729 z m 11.09161,-2.535589 c 0.0127,-0.308227 0.0754,-0.37092 0.15985,-0.159854 0.0764,0.190995 0.067,0.419198 -0.0209,0.507119 -0.0879,0.08792 -0.15045,-0.06835 -0.13897,-0.347265 z m -102.393741,-3.175 c 0.0127,-0.308227 0.07539,-0.37092 0.159851,-0.159854 0.07643,0.190995 0.06703,0.419198 -0.02088,0.507119 -0.08792,0.08792 -0.150452,-0.06835 -0.138964,-0.347265 z M 98.540644,2.5418916 97.763539,1.6819958 l 0.859896,0.777105 c 0.801544,0.7243709 0.981511,0.9426866 0.777105,0.9426866 -0.04554,0 -0.432488,-0.3869531 -0.859896,-0.8598958 z M 24.292058,-18.739369 c 0.190995,-0.07643 0.419198,-0.06703 0.507119,0.02089 0.08792,0.08792 -0.06835,0.150453 -0.347266,0.138965 -0.308226,-0.0127 -0.370919,-0.07539 -0.159853,-0.159853 z m 50.518878,0.0055 c 0.181901,-0.0734 0.479557,-0.0734 0.661458,0 0.181901,0.0734 0.03307,0.133453 -0.330729,0.133453 -0.363802,0 -0.51263,-0.06005 -0.330729,-0.133453 z m 2.662369,-11.11801 c 0.190995,-0.07643 0.419201,-0.06703 0.507119,0.02089 0.08792,0.08792 -0.06835,0.150453 -0.347265,0.138964 -0.308227,-0.0127 -0.37092,-0.07539 -0.159854,-0.159852 z"
         id="path871" />
      <path
         style="fill:#2e2e2e;stroke-width:0.264583"
         d="m 97.052471,105.08563 c 0.190995,-0.0764 0.419201,-0.067 0.507119,0.0209 0.08792,0.0879 -0.06835,0.15045 -0.347266,0.13897 -0.308226,-0.0127 -0.370919,-0.0754 -0.159853,-0.15985 z M 92.819138,93.973127 c 0.190995,-0.07643 0.419201,-0.06703 0.507119,0.02087 0.08792,0.08792 -0.06835,0.150453 -0.347266,0.138965 -0.308226,-0.0127 -0.370919,-0.07539 -0.159853,-0.159851 z m 3.68763,0.0055 c 0.181901,-0.0734 0.479557,-0.0734 0.661458,0 0.181901,0.0734 0.03307,0.133453 -0.330729,0.133453 -0.363802,0 -0.51263,-0.06005 -0.330729,-0.133453 z M 130.98963,77.859936 c 0.0127,-0.308226 0.0754,-0.370919 0.15985,-0.159853 0.0764,0.190995 0.067,0.419201 -0.0209,0.507119 -0.0879,0.08792 -0.15045,-0.06835 -0.13897,-0.347266 z M 34.89125,76.757513 c -0.329107,-0.419645 -0.319749,-0.429003 0.0999,-0.0999 0.254661,0.199721 0.463021,0.40808 0.463021,0.463021 0,0.217762 -0.217273,0.07761 -0.562917,-0.363125 z m 96.09838,-0.749652 c 0.0127,-0.308226 0.0754,-0.370919 0.15985,-0.159853 0.0764,0.190995 0.067,0.4192 -0.0209,0.507119 -0.0879,0.08792 -0.15045,-0.06835 -0.13897,-0.347266 z m -101.629918,-4.542014 -1.44617,-1.521355 1.521354,1.446171 c 1.413386,1.343538 1.642557,1.596538 1.44617,1.596538 -0.04135,0 -0.725961,-0.68461 -1.521354,-1.521354 z M 24.307917,66.17418 c -0.329107,-0.419645 -0.319749,-0.429003 0.0999,-0.0999 0.254662,0.199721 0.463021,0.40808 0.463021,0.463021 0,0.217762 -0.217273,0.0776 -0.562917,-0.363125 z m 101.878303,-1.322916 -0.64143,-0.727605 0.7276,0.641432 c 0.68006,0.599517 0.84894,0.813777 0.64143,0.813777 -0.0474,0 -0.37481,-0.327422 -0.7276,-0.727604 z m -89.414362,-2.116667 -2.508316,-2.579687 2.579687,2.508316 c 1.418828,1.379574 2.579688,2.540433 2.579688,2.579687 0,0.191728 -0.321361,-0.112329 -2.651059,-2.508316 z m 51.598973,-8.897292 c 0,-0.05494 0.208359,-0.2633 0.463021,-0.46302 0.419645,-0.329108 0.429003,-0.319749 0.0999,0.0999 -0.345644,0.440729 -0.562917,0.580887 -0.562917,0.363124 z M 59.232915,47.653348 c -0.329107,-0.419645 -0.319749,-0.429004 0.0999,-0.0999 0.254661,0.19972 0.46302,0.40808 0.46302,0.46302 0,0.217763 -0.217273,0.0776 -0.562917,-0.363124 z m 60.674915,-22.68802 c 0.005,-0.436563 0.0647,-0.583126 0.13177,-0.325694 0.0671,0.257431 0.0627,0.614619 -0.01,0.79375 -0.0725,0.179131 -0.12736,-0.03149 -0.12197,-0.468056 z m 11.1223,-0.132292 c 0,-0.509323 0.0544,-0.717682 0.121,-0.463021 0.0666,0.254662 0.0666,0.671381 0,0.926042 -0.0666,0.254662 -0.121,0.0463 -0.121,-0.463021 z m -24.41729,-30.3609357 -0.9118,-0.9921875 0.99219,0.9117984 c 0.5457,0.5014891 0.99218,0.9479734 0.99218,0.9921874 0,0.2020411 -0.22389,0.011708 -1.07257,-0.9117983 z M 76.001561,-18.741012 c 0.254661,-0.06655 0.67138,-0.06655 0.926041,0 0.254662,0.06655 0.0463,0.121 -0.463021,0.121 -0.509322,0 -0.717682,-0.05445 -0.46302,-0.121 z m -39.773671,-6.366053 -0.641431,-0.727605 0.727604,0.641434 c 0.400182,0.352788 0.727604,0.68021 0.727604,0.727604 0,0.207505 -0.21426,0.03862 -0.813777,-0.641433 z m -13.258749,-4.744803 c 0.190995,-0.07643 0.419198,-0.06703 0.507119,0.02089 0.08792,0.08792 -0.06835,0.150453 -0.347265,0.138964 -0.308227,-0.0127 -0.37092,-0.07539 -0.159854,-0.159852 z m 2.38125,0 c 0.190995,-0.07643 0.419198,-0.06703 0.507119,0.02089 0.08792,0.08792 -0.06835,0.150453 -0.347265,0.138964 -0.308227,-0.0127 -0.37092,-0.07539 -0.159854,-0.159852 z m 50.65117,-0.0016 c 0.254661,-0.06655 0.67138,-0.06655 0.926041,0 0.254662,0.06655 0.0463,0.121 -0.463021,0.121 -0.509322,0 -0.717682,-0.05445 -0.46302,-0.121 z"
         id="path869" />
      <path
         style="fill:#000000;stroke-width:0.264583"
         d="M 89.958331,104.97613 C 66.884845,102.63342 38.795687,84.566232 18.318048,58.896496 1.8728748,38.281658 -6.2084587,16.000859 -3.2988555,-0.70281275 -2.178598,-7.134071 0.60043302,-13.144977 4.656186,-17.909171 c 0.6250273,-0.734204 3.0472284,-2.996391 5.382669,-5.027083 6.253682,-5.437646 9.226616,-6.841315 14.435104,-6.815526 4.113159,0.02037 8.241559,1.505076 10.945897,3.936509 0.739367,0.664755 4.219942,4.910877 7.734612,9.435828 6.914437,8.9019714 7.894052,10.5082464 8.573102,14.0573274 0.500854,2.61772653 0.498544,4.1686954 -0.01003,6.7272452 -0.671328,3.3774114 -2.018541,5.6826574 -6.740017,11.5329914 -3.353641,4.155463 -4.211891,5.378024 -4.08628,5.820833 0.08745,0.308298 1.007305,2.281991 2.044117,4.385987 5.779008,11.727309 15.517286,22.361058 26.830919,29.298121 2.802104,1.718135 9.45807,5.108127 10.030158,5.108524 0.159035,1.09e-4 2.659348,-1.906016 5.556249,-4.235833 3.538236,-2.845602 5.961872,-4.584113 7.383767,-5.296477 2.207408,-1.105905 5.227092,-1.844574 7.540627,-1.844574 3.69373,0 8.28504,1.692267 11.24479,4.144618 0.87313,0.72344 4.4613,3.536955 7.97371,6.252257 3.51242,2.7153 6.93916,5.551922 7.61499,6.303605 2.40731,2.677515 3.9068,6.875008 3.91117,10.948477 0.006,5.403154 -1.31367,8.183557 -6.93028,14.603716 -5.0915,5.819912 -8.58122,8.516146 -13.9567,10.783235 -5.67361,2.39283 -13.407094,3.45283 -20.176432,2.76552 z M 98.68958,93.880837 c 4.78449,-0.618902 8.94179,-2.254048 12.24664,-4.816842 2.06111,-1.598319 7.95136,-8.274624 8.55584,-9.697614 0.62282,-1.466167 0.53303,-3.771527 -0.20467,-5.254839 -0.53834,-1.082468 -1.6158,-2.023882 -8.0301,-7.016226 -4.07459,-3.171306 -7.82505,-5.957106 -8.33438,-6.190667 -0.50932,-0.233561 -1.43203,-0.483516 -2.05046,-0.555456 -2.256035,-0.262432 -3.015759,0.180123 -10.319979,6.011622 -3.785367,3.022136 -7.27131,5.630338 -7.746544,5.796007 -2.24817,0.783717 -4.636347,0.07716 -12.029887,-3.559098 C 54.551455,60.618216 41.174408,47.341407 32.945589,31.050744 29.334315,23.901478 28.36612,20.713934 29.135483,18.506934 c 0.162745,-0.46685 2.766539,-3.948327 5.78621,-7.736618 5.511905,-6.9148926 6.088724,-7.8445643 6.088724,-9.81335525 0,-2.09155765 -0.114126,-2.26030625 -11.001602,-16.26719275 -2.420517,-3.114025 -4.449334,-3.981473 -7.343931,-3.139991 -1.210038,0.351768 -2.082034,0.985209 -5.632146,4.091343 -3.644604,3.188809 -4.390191,3.979712 -5.634343,5.9767885 C 7.0207785,-1.3552646 6.0231415,7.4007632 8.4650849,17.362886 13.10254,36.281789 29.144058,58.18293 50.667708,74.981217 c 3.250951,2.53723 10.784842,7.610025 14.022916,9.442053 12.802917,7.24359 24.963571,10.626348 33.998956,9.457567 z"
         id="path867"
         sodipodi:nodetypes="ssssssssssssssssssssscssssssssssssssssssssssssss" />
    </g>
  </g>
</svg>
