<?xml version="1.0" encoding="UTF-8" standalone="no"?>
<svg
   xmlns:dc="http://purl.org/dc/elements/1.1/"
   xmlns:cc="http://creativecommons.org/ns#"
   xmlns:rdf="http://www.w3.org/1999/02/22-rdf-syntax-ns#"
   xmlns:svg="http://www.w3.org/2000/svg"
   xmlns="http://www.w3.org/2000/svg"
   xmlns:sodipodi="http://sodipodi.sourceforge.net/DTD/sodipodi-0.dtd"
   xmlns:inkscape="http://www.inkscape.org/namespaces/inkscape"
   width="197.27814mm"
   height="165.27924mm"
   viewBox="0 0 197.27813 165.27923"
   version="1.1"
   id="svg8"
   inkscape:version="1.0.2-2 (e86c870879, 2021-01-15)"
   sodipodi:docname="logow.svg">
  <defs
     id="defs2" />
  <sodipodi:namedview
     id="base"
     pagecolor="#ffffff"
     bordercolor="#666666"
     borderopacity="1.0"
     inkscape:pageopacity="0.0"
     inkscape:pageshadow="2"
     inkscape:zoom="0.35"
     inkscape:cx="207.76046"
     inkscape:cy="244.42691"
     inkscape:document-units="mm"
     inkscape:current-layer="g849"
     inkscape:document-rotation="0"
     showgrid="false"
     inkscape:window-width="1267"
     inkscape:window-height="1040"
     inkscape:window-x="50"
     inkscape:window-y="0"
     inkscape:window-maximized="0"
     inkscape:snap-page="true"
     fit-margin-top="0"
     fit-margin-left="0"
     fit-margin-right="0"
     fit-margin-bottom="0" />
  <metadata
     id="metadata5">
    <rdf:RDF>
      <cc:Work
         rdf:about="">
        <dc:format>image/svg+xml</dc:format>
        <dc:type
           rdf:resource="http://purl.org/dc/dcmitype/StillImage" />
        <dc:title></dc:title>
      </cc:Work>
    </rdf:RDF>
  </metadata>
  <g
     inkscape:label="Layer 1"
     inkscape:groupmode="layer"
     id="layer1"
     transform="translate(-3.6116389,-73.226753)">
    <g
       id="g849"
       transform="translate(-2.2328857e-4,17.483973)">
      <path
         id="path851"
         style="fill:#ffffff;stroke:#ffffff;stroke-width:0.0846667;stroke-opacity:1"
         d="m 143.35938,55.785156 c -1.08014,-0.0085 -1.45464,1.23328 -1.29297,2.123047 -0.0534,54.356107 -0.0468,108.712257 0,163.068357 2.29362,0 4.58724,0 6.88086,0 0.014,-25.50523 0.003,-51.01054 0.10156,-76.51562 14.9375,10.80338 29.875,21.60677 44.8125,32.41015 0,14.70183 0,29.40365 0,44.10547 2.32877,0 4.65755,0 6.98633,0 0,-33.0345 0,-66.06901 0,-99.10351 -2.32552,0 -4.65105,0 -6.97657,0 -0.0145,4.66015 -0.0272,9.32031 -0.041,13.98047 -9.97852,-7.25782 -19.95703,-14.51563 -29.93555,-21.77344 9.79536,-2.97501 17.75789,-11.34463 20.12023,-21.322327 2.16344,-8.654215 0.19242,-18.255329 -5.32921,-25.281191 -5.61456,-7.29827 -14.74719,-11.844976 -23.98981,-11.577528 -3.7785,-0.06282 -7.55899,-0.02367 -11.33636,-0.113878 z M 5.3925781,56.363281 c 0,2.123698 0,4.247396 0,6.371094 18.2975339,0.0039 36.5951209,-0.01321 54.8925779,0.05078 -12.110026,19.694011 -24.220052,39.388025 -36.330078,59.082035 -6.1875,0.002 -12.375,0.004 -18.5624999,0.006 0,2.32552 0,4.65104 0,6.97656 4.7447889,0.0151 9.4895839,0.0285 14.2343749,0.043 -5.312925,8.6362 -10.627681,17.27129 -15.939453,25.9082 13.531901,0.028 27.063802,0.056 40.595703,0.084 -12.843465,20.88038 -25.689211,41.75937 -38.5312499,62.64062 -0.4195279,1.96093 1.6324797,3.71819 3.5136719,3.38672 21.18863,0.1096 42.377607,0.0486 63.566406,0.0644 0,-2.32877 0,-4.65755 0,-6.98633 -18.943359,-0.0129 -37.886718,-0.0275 -56.830078,-0.041 12.098023,-19.68597 24.204437,-39.36678 36.318359,-59.04297 5.702161,-0.076 11.404924,-0.0498 17.107422,-0.0547 -0.213769,7.37042 -0.02827,14.74465 -0.07925,22.1168 0.02774,4.66522 -0.06038,9.3418 0.275622,13.99682 1.320447,11.2032 8.66115,21.4362 18.768105,26.41028 9.835829,4.918 22.080409,4.7709 31.702439,-0.6095 8.15956,-4.45151 14.42152,-12.30089 16.76689,-21.31482 1.04441,-3.76814 1.26666,-7.70344 1.12563,-11.59528 -0.0479,-10.33302 0.101,-20.67019 -0.15399,-31.00014 -0.48146,-5.10753 -2.19763,-10.07539 -4.8449,-14.46119 3.7737,-6.06262 5.34062,-13.3316 5.00413,-20.425 -0.005,-10.3839 0.0629,-20.770997 -0.0913,-31.152674 -0.8802,-7.733438 -4.26153,-15.220713 -9.79301,-20.739762 C 121.60093,59.46979 112.35035,55.62302 103.06212,55.855616 92.801338,55.973979 82.735686,61.02995 76.52207,69.200025 c -4.857569,6.2786 -7.50764,14.27083 -7.134597,22.219113 -0.03424,10.170082 -0.112078,20.340832 0.01878,30.510552 -12.467277,-0.082 -24.934868,-0.076 -37.402344,-0.0918 12.822904,-20.86654 25.645912,-41.733024 38.46875,-62.599609 0.342303,-1.964811 -1.707338,-3.677105 -3.58789,-3.33789 -20.497183,-0.116714 -40.994801,-0.03747 -61.4921879,-0.06641 0,0.176433 0,0.352865 0,0.529297 z M 151.71875,62.84375 c 3.77229,0.01484 7.59092,-0.06711 11.14011,1.374056 6.21019,2.292316 11.4895,7.427451 13.69126,13.763685 1.30803,3.613489 1.6913,7.774778 1.03012,11.508356 -1.33022,8.035708 -7.3555,15.009273 -15.02259,17.676963 -2.55616,0.91472 -5.44491,1.28738 -8.21467,1.25113 -0.53327,0.0662 -1.34859,-0.15247 -1.71407,0.0824 2.9e-4,1.93867 0.002,3.87734 0.002,5.81602 13.73898,9.93816 27.48209,19.87065 41.22266,29.80664 -2.9e-4,8.0332 0.0106,16.06644 -0.0195,24.09961 -14.92888,-10.77791 -29.85176,-21.56414 -44.76953,-32.35743 -0.11184,-24.34684 -0.10225,-48.693976 -0.11718,-73.041011 0.92382,0.0065 1.84765,0.01302 2.77148,0.01953 z m -48.10937,0.0078 c 4.38041,-0.05391 8.84588,1.061024 12.7214,3.10774 4.57883,2.394885 8.43006,6.139103 11.03641,10.593432 1.84563,3.249083 3.1739,7.004091 3.48606,10.798783 0.22823,3.409243 0.0723,6.829708 0.14668,10.243792 -0.009,8.540073 0.12898,17.084883 -0.112,25.621613 -0.28358,3.16686 -1.18802,6.26797 -2.56762,9.12878 -7.13271,-7.35181 -17.65841,-11.34184 -27.87682,-10.26808 -8.055322,0.72963 -15.795605,4.45955 -21.398568,10.29152 -1.874826,-3.76871 -2.778422,-7.98995 -2.672646,-12.19531 -0.0075,-10.68441 -0.144832,-21.371624 0.04493,-32.05492 0.662055,-11.473707 9.588574,-21.946603 20.87772,-24.534928 2.04881,-0.485542 4.172764,-0.733816 6.314454,-0.732422 z m -33.681646,63.97657 c 0.76634,4.08406 2.268505,8.03062 4.431641,11.58008 -1.796619,2.95823 -3.164241,6.18201 -3.998047,9.54297 -4.589849,1.8e-4 -9.179754,0.0102 -13.769531,-0.0215 4.416015,-7.20443 8.832031,-14.40886 13.248047,-21.61328 0.0293,0.17057 0.05859,0.34114 0.08789,0.51171 z m -24.3125,2.03321 c 4.886087,-6.1e-4 9.77216,0.006 14.658204,0.0273 -3.902344,6.33985 -7.804688,12.67969 -11.707032,19.01953 -10.859372,0.009 -21.71877,0.0299 -32.578125,-0.002 3.899089,-6.34831 7.798177,-12.69661 11.697266,-19.04492 5.976562,0 11.953125,0 17.929687,0 z m 57.865236,0.0312 c 5.31907,-0.0512 10.81892,1.58789 15.31623,4.60475 2.09108,1.35885 3.92429,3.07489 5.60955,4.8972 -4.13437,4.68767 -9.8419,8.03544 -16.02927,9.08719 -6.78131,1.24558 -13.933527,-0.28377 -19.732449,-4.11258 -2.095716,-1.3932 -3.997541,-3.07455 -5.654297,-4.9668 5.06268,-5.89224 12.746372,-9.50897 20.490236,-9.50976 z m 24.96289,15.79687 c 1.60201,3.37568 2.49072,7.26521 2.54687,11.00782 -0.0506,11.0702 0.0684,22.1424 -0.0411,33.21314 -0.5969,6.54592 -3.58903,12.89157 -8.36705,17.42748 -4.22963,4.109 -9.86872,6.74059 -15.68945,7.44141 -2.36955,0.27776 -4.88138,0.2422 -7.249152,-0.10359 -8.156733,-1.18509 -15.590632,-6.3185 -19.672131,-13.46843 -1.943735,-3.37481 -3.157033,-7.07983 -3.49464,-10.98856 -0.186516,-3.25317 -0.06094,-6.51783 -0.118697,-9.77569 -0.02331,-8.64777 -0.130584,-17.30041 0.110623,-25.94474 0.299015,-3.14327 1.200017,-6.21815 2.562667,-9.06274 6.664183,6.90836 16.327494,10.88446 25.94172,10.37895 8.74957,-0.19469 17.26953,-4.127 23.33953,-10.38872 0.0436,0.0879 0.0872,0.17578 0.13086,0.26367 z" />
    </g>
  </g>
</svg>
