<?xml version="1.0" encoding="UTF-8" standalone="no"?>
<svg
   xmlns:dc="http://purl.org/dc/elements/1.1/"
   xmlns:cc="http://creativecommons.org/ns#"
   xmlns:rdf="http://www.w3.org/1999/02/22-rdf-syntax-ns#"
   xmlns:svg="http://www.w3.org/2000/svg"
   xmlns="http://www.w3.org/2000/svg"
   xmlns:sodipodi="http://sodipodi.sourceforge.net/DTD/sodipodi-0.dtd"
   xmlns:inkscape="http://www.inkscape.org/namespaces/inkscape"
   width="135.45326mm"
   height="124.27808mm"
   viewBox="0 0 135.45326 124.27809"
   version="1.1"
   id="svg8"
   inkscape:version="1.0.2-2 (e86c870879, 2021-01-15)"
   sodipodi:docname="mail.svg">
  <defs
     id="defs2" />
  <sodipodi:namedview
     id="base"
     pagecolor="#ffffff"
     bordercolor="#666666"
     borderopacity="1.0"
     inkscape:pageopacity="0.0"
     inkscape:pageshadow="2"
     inkscape:zoom="0.35"
     inkscape:cx="374.65933"
     inkscape:cy="305.72307"
     inkscape:document-units="mm"
     inkscape:current-layer="g865"
     inkscape:document-rotation="0"
     showgrid="false"
     fit-margin-top="0"
     fit-margin-left="0"
     fit-margin-right="0"
     fit-margin-bottom="0"
     inkscape:window-width="1920"
     inkscape:window-height="1018"
     inkscape:window-x="-8"
     inkscape:window-y="-8"
     inkscape:window-maximized="1" />
  <metadata
     id="metadata5">
    <rdf:RDF>
      <cc:Work
         rdf:about="">
        <dc:format>image/svg+xml</dc:format>
        <dc:type
           rdf:resource="http://purl.org/dc/dcmitype/StillImage" />
        <dc:title></dc:title>
      </cc:Work>
    </rdf:RDF>
  </metadata>
  <g
     inkscape:label="Layer 1"
     inkscape:groupmode="layer"
     id="layer1"
     transform="translate(-6.7047181,-82.900454)">
    <g
       id="g865"
       transform="translate(31.750005,100.54167)">
      <path
         style="fill:#d0d0d0;stroke-width:0.264583"
         d="m 36.743333,78.609596 c -0.329107,-0.419645 -0.319749,-0.429003 0.0999,-0.0999 0.44073,0.345644 0.580888,0.562917 0.363125,0.562917 -0.05494,0 -0.2633,-0.208359 -0.463021,-0.463021 z m -2.38125,-2.116666 c -0.329107,-0.419645 -0.319749,-0.429004 0.0999,-0.0999 0.254662,0.19972 0.463021,0.40808 0.463021,0.46302 0,0.217763 -0.217273,0.07761 -0.562917,-0.363124 z m 8.466667,-8.202083 c -0.329108,-0.419645 -0.319749,-0.429004 0.0999,-0.0999 0.254661,0.19972 0.46302,0.40808 0.46302,0.46302 0,0.217763 -0.217273,0.07761 -0.562916,-0.363124 z m -18.25625,-1.5875 c -0.329107,-0.419645 -0.319748,-0.429004 0.0999,-0.0999 0.254661,0.19972 0.46302,0.40808 0.46302,0.46302 0,0.217763 -0.217273,0.0776 -0.562917,-0.363124 z m 14.83039,-1.5875 -0.641432,-0.727604 0.727604,0.641432 c 0.680056,0.599516 0.84894,0.813776 0.641432,0.813776 -0.04739,0 -0.374814,-0.327422 -0.727604,-0.727604 z M 126.1725,64.58668 c -0.32911,-0.419645 -0.31975,-0.429003 0.0999,-0.0999 0.25466,0.199721 0.46302,0.40808 0.46302,0.463021 0,0.217763 -0.21727,0.07761 -0.56291,-0.363125 z M 22.455834,64.322097 c -0.329106,-0.419645 -0.319748,-0.429003 0.0999,-0.0999 0.254661,0.199721 0.463021,0.40808 0.463021,0.463021 0,0.217762 -0.217273,0.07761 -0.562917,-0.363125 z m 12.19034,-3.96875 -0.911799,-0.992187 0.992188,0.911799 c 0.923507,0.84868 1.11384,1.072576 0.911799,1.072576 -0.04422,0 -0.490699,-0.446485 -0.992188,-0.992188 z M 111.885,53.474181 c -0.32911,-0.419645 -0.31975,-0.429004 0.0999,-0.0999 0.44073,0.345643 0.58089,0.562917 0.36313,0.562917 -0.0549,0 -0.2633,-0.20836 -0.46302,-0.463021 z M 99.152601,48.999474 c 0.181901,-0.0734 0.479557,-0.0734 0.661459,0 0.181901,0.0734 0.03307,0.133453 -0.33073,0.133453 -0.363802,0 -0.51263,-0.06006 -0.330729,-0.133453 z m 1.587499,0 c 0.1819,-0.0734 0.47956,-0.0734 0.66146,0 0.1819,0.0734 0.0331,0.133453 -0.33073,0.133453 -0.3638,0 -0.51263,-0.06006 -0.33073,-0.133453 z m -3.617131,-23.79161 c 0.0127,-0.308227 0.07539,-0.37092 0.159851,-0.159854 0.07643,0.190995 0.06703,0.419198 -0.02088,0.507119 -0.08792,0.08792 -0.150452,-0.06835 -0.138964,-0.347265 z M -4.1540451,6.5767872 c 0,-0.8003645 0.0496,-1.1277864 0.1102229,-0.7276041 0.060623,0.4001822 0.060623,1.055026 0,1.4552082 -0.060623,0.4001823 -0.1102229,0.07276 -0.1102229,-0.7276041 z M 52.143805,1.659948 c 0.0127,-0.3082263 0.07539,-0.3709193 0.159851,-0.1598533 0.07643,0.1909948 0.06703,0.4191979 -0.02088,0.507119 -0.08792,0.087918 -0.150453,-0.068352 -0.138965,-0.3472657 z m 0.02089,-1.43316048 c 0,-0.36380207 0.06006,-0.51263019 0.133453,-0.33072915 0.0734,0.18190103 0.0734,0.47955726 0,0.6614583 -0.0734,0.18190103 -0.133453,0.0330729 -0.133453,-0.33072915 z m 54.321815,-5.62239552 -1.57922,-1.6536458 1.65364,1.5792177 c 1.5361,1.4669581 1.77472,1.7280738 1.57922,1.7280738 -0.0409,0 -0.78507,-0.7441406 -1.65364,-1.6536457 z M 77.473305,-7.362286 c 0.190995,-0.07643 0.419201,-0.067031 0.507119,0.020889 0.08792,0.087919 -0.06835,0.150453 -0.347265,0.1389645 -0.308227,-0.012695 -0.37092,-0.075391 -0.159854,-0.1598525 z m -29.882056,-3.45728 c -0.329107,-0.419644 -0.319749,-0.429002 0.0999,-0.0999 0.44073,0.345644 0.580888,0.562916 0.363125,0.562916 -0.05494,0 -0.2633,-0.20836 -0.463021,-0.463021 z m 68.667981,-0.926042 -0.50403,-0.595312 0.59532,0.504028 c 0.55944,0.473662 0.71576,0.686597 0.50403,0.686597 -0.0502,0 -0.3181,-0.267891 -0.59532,-0.595313 z m -3.43958,-3.439583 -0.50403,-0.595312 0.59531,0.504028 c 0.32743,0.277215 0.59532,0.545106 0.59532,0.595312 0,0.211734 -0.21294,0.05542 -0.6866,-0.504028 z m -76.3409,-9.921874 c -0.329107,-0.419644 -0.319749,-0.429003 0.0999,-0.0999 0.44073,0.345643 0.580887,0.562915 0.363125,0.562915 -0.05494,0 -0.2633,-0.208359 -0.463021,-0.46302 z"
         id="path879" />
      <path
         style="fill:#aeaeae;stroke-width:0.264583"
         d="m 33.568333,75.69918 c -0.329107,-0.419645 -0.319749,-0.429004 0.0999,-0.0999 0.254662,0.19972 0.463021,0.40808 0.463021,0.46302 0,0.217763 -0.217273,0.07761 -0.562917,-0.363124 z M 25.36625,67.497097 c -0.329107,-0.419645 -0.319749,-0.429004 0.0999,-0.0999 0.254661,0.19972 0.46302,0.40808 0.46302,0.46302 0,0.217763 -0.217273,0.07761 -0.562917,-0.363124 z M 40.4475,66.17418 c -0.329108,-0.419645 -0.319749,-0.429003 0.0999,-0.0999 0.254661,0.199721 0.463021,0.40808 0.463021,0.463021 0,0.217762 -0.217274,0.0776 -0.562917,-0.363125 z m 16.024396,-21.298957 -0.777105,-0.859896 0.859896,0.777105 c 0.801544,0.724371 0.981511,0.942687 0.777105,0.942687 -0.04554,0 -0.432488,-0.386953 -0.859896,-0.859896 z M 106.62708,30.818557 c 0,-0.05494 0.20836,-0.2633 0.46302,-0.463021 0.41965,-0.329107 0.429,-0.319749 0.0999,0.0999 -0.34565,0.44073 -0.56292,0.580887 -0.56292,0.363125 z M 121.41,30.455432 c -0.32911,-0.419645 -0.31975,-0.429003 0.0999,-0.0999 0.25466,0.199721 0.46302,0.40808 0.46302,0.463021 0,0.217762 -0.21727,0.07761 -0.56291,-0.363125 z M 7.185528,7.3705372 c 0,-0.3638021 0.060053,-0.5126302 0.1334521,-0.3307292 0.073399,0.181901 0.073399,0.4795573 0,0.6614583 C 7.2455812,7.8831673 7.185528,7.7343392 7.185528,7.3705372 Z M 70.379165,-5.429357 c 0,-0.054942 0.208359,-0.2633016 0.463021,-0.4630208 0.419645,-0.3291075 0.429003,-0.3197492 0.0999,0.099895 -0.345644,0.4407291 -0.562917,0.5808871 -0.562917,0.363126 z m 44.821735,-7.374584 -0.50403,-0.595312 0.59531,0.504028 c 0.55945,0.473661 0.71577,0.686596 0.50403,0.686596 -0.0502,0 -0.3181,-0.26789 -0.59531,-0.595312 z m -1.32292,-1.322917 -0.50403,-0.595312 0.59532,0.504028 c 0.32742,0.277215 0.59531,0.545106 0.59531,0.595312 0,0.211734 -0.21293,0.05542 -0.6866,-0.504028 z m -43.267982,-6.217708 c -0.329107,-0.419644 -0.319749,-0.429002 0.0999,-0.09989 0.44073,0.345643 0.580888,0.562915 0.363125,0.562915 -0.05494,0 -0.2633,-0.208359 -0.463021,-0.463021 z"
         id="path877" />
      <path
         style="fill:#909090;stroke-width:0.264583"
         d="m 99.946351,60.376556 c 0.181899,-0.0734 0.479559,-0.0734 0.661459,0 0.1819,0.0734 0.0331,0.133453 -0.33073,0.133453 -0.363802,0 -0.51263,-0.06005 -0.330729,-0.133453 z M 55.264166,43.684598 c -0.329108,-0.419645 -0.319749,-0.429003 0.0999,-0.0999 0.440729,0.345644 0.580887,0.562917 0.363124,0.562917 -0.05494,0 -0.2633,-0.20836 -0.46302,-0.463021 z M 7.1646396,8.2745311 C 7.1773343,7.9663047 7.2400303,7.9036117 7.3244921,8.1146778 7.4009226,8.3056725 7.3915227,8.5338756 7.3036033,8.6217967 7.2156844,8.7097151 7.1531504,8.5534442 7.1646388,8.2745311 Z m 0.040496,-2.2269105 c 0,-0.5093229 0.05445,-0.7176823 0.121,-0.4630208 0.06655,0.2546614 0.06655,0.6713801 0,0.9260416 -0.06655,0.2546614 -0.121,0.046302 -0.121,-0.4630208 z M 40.787608,1.0205375 c 0,-0.36380209 0.06005,-0.51263021 0.133453,-0.33072917 0.0734,0.18190103 0.0734,0.47955727 0,0.66145827 -0.0734,0.1819011 -0.133453,0.033073 -0.133453,-0.3307291 z"
         id="path875" />
      <path
         style="fill:#6f6f6f;stroke-width:0.264583"
         d="m 120.38541,95.64147 c 0,-0.05494 0.20836,-0.2633 0.46302,-0.463021 0.41965,-0.329107 0.42901,-0.319749 0.0999,0.0999 -0.34564,0.44073 -0.56292,0.580888 -0.56292,0.363125 z M 108.53074,25.494495 c 0.005,-0.436563 0.0647,-0.583126 0.13178,-0.325695 0.0671,0.257432 0.0627,0.61462 -0.01,0.79375 -0.0725,0.179131 -0.12736,-0.03149 -0.12197,-0.468055 z M 90.603144,10.479391 89.826039,9.6194954 90.685935,10.3966 c 0.801545,0.724371 0.981511,0.942687 0.777105,0.942687 -0.04554,0 -0.432488,-0.386953 -0.859896,-0.859896 z M 7.1646396,9.068281 C 7.1773343,8.7600547 7.2400303,8.6973617 7.3244921,8.9084277 7.4009226,9.0994225 7.3915227,9.3276256 7.3036033,9.4155466 7.2156844,9.503465 7.1531504,9.3471942 7.1646388,9.068281 Z M 75.477429,-7.3648993 c 0.257432,-0.067083 0.614619,-0.062672 0.79375,0.0098 0.179131,0.072476 -0.03149,0.1273619 -0.468056,0.1219697 -0.436562,-0.00539 -0.583126,-0.06469 -0.325694,-0.1317736 z"
         id="path873" />
      <path
         style="fill:#4f4f4f;stroke-width:0.264583"
         d="m 93.728643,93.971481 c 0.254662,-0.06655 0.67138,-0.06655 0.926042,0 0.254661,0.06655 0.0463,0.121002 -0.463021,0.121002 -0.509323,0 -0.717682,-0.05445 -0.463021,-0.121002 z m 2.000912,0.0016 c 0.190994,-0.07643 0.4192,-0.06703 0.507118,0.02088 0.08792,0.08792 -0.06835,0.150453 -0.347265,0.138965 -0.308227,-0.0127 -0.37092,-0.07539 -0.159853,-0.159851 z M 117.73958,81.618554 c 0,-0.05494 0.20836,-0.2633 0.46302,-0.463021 0.41965,-0.329107 0.429,-0.319749 0.0999,0.0999 -0.34565,0.44073 -0.56292,0.580888 -0.56292,0.363125 z m -86.138516,-7.903749 -0.777105,-0.859896 0.859896,0.777105 c 0.801544,0.724371 0.981511,0.942687 0.777105,0.942687 -0.04554,0 -0.432488,-0.386954 -0.859896,-0.859896 z m -4.369006,-4.365625 -0.641432,-0.727604 0.727604,0.641432 c 0.680056,0.599517 0.848939,0.813776 0.641432,0.813776 -0.04739,0 -0.374814,-0.327422 -0.727604,-0.727604 z m 4.748775,-11.641666 c -0.329107,-0.419645 -0.319749,-0.429003 0.0999,-0.0999 0.254661,0.19972 0.46302,0.40808 0.46302,0.463021 0,0.217762 -0.217273,0.0776 -0.562917,-0.363125 z m 16.428878,-5.027083 -1.44617,-1.521354 1.521354,1.44617 c 0.836745,0.795393 1.521354,1.480002 1.521354,1.521354 0,0.196387 -0.252999,-0.03279 -1.596538,-1.44617 z M 119.89802,26.155953 c 0,-0.363802 0.0601,-0.51263 0.13345,-0.330729 0.0734,0.181901 0.0734,0.479557 0,0.661458 -0.0734,0.181901 -0.13345,0.03307 -0.13345,-0.330729 z m 11.09161,-2.535589 c 0.0127,-0.308227 0.0754,-0.37092 0.15985,-0.159854 0.0764,0.190995 0.067,0.419198 -0.0209,0.507119 -0.0879,0.08792 -0.15045,-0.06835 -0.13897,-0.347265 z m -102.393741,-3.175 c 0.0127,-0.308227 0.07539,-0.37092 0.159851,-0.159854 0.07643,0.190995 0.06703,0.419198 -0.02088,0.507119 -0.08792,0.08792 -0.150452,-0.06835 -0.138964,-0.347265 z M 98.540644,2.5418916 97.763539,1.6819958 l 0.859896,0.777105 c 0.801544,0.7243709 0.981511,0.9426866 0.777105,0.9426866 -0.04554,0 -0.432488,-0.3869531 -0.859896,-0.8598958 z M 24.292058,-18.739369 c 0.190995,-0.07643 0.419198,-0.06703 0.507119,0.02089 0.08792,0.08792 -0.06835,0.150453 -0.347266,0.138965 -0.308226,-0.0127 -0.370919,-0.07539 -0.159853,-0.159853 z m 50.518878,0.0055 c 0.181901,-0.0734 0.479557,-0.0734 0.661458,0 0.181901,0.0734 0.03307,0.133453 -0.330729,0.133453 -0.363802,0 -0.51263,-0.06005 -0.330729,-0.133453 z m 2.662369,-11.11801 c 0.190995,-0.07643 0.419201,-0.06703 0.507119,0.02089 0.08792,0.08792 -0.06835,0.150453 -0.347265,0.138964 -0.308227,-0.0127 -0.37092,-0.07539 -0.159854,-0.159852 z"
         id="path871" />
      <g
         id="g895"
         transform="translate(-58.526079,-20.240363)">
        <path
           style="fill:#d0d0d0;stroke-width:0.264583"
           d="m 60.399155,14.025766 c 0.190995,-0.07643 0.419198,-0.06703 0.507119,0.02089 0.08792,0.08792 -0.06835,0.150453 -0.347265,0.138964 -0.308227,-0.01269 -0.37092,-0.07539 -0.159854,-0.159852 z m 81.227075,0 c 0.191,-0.07643 0.41921,-0.06703 0.50712,0.02089 0.0879,0.08792 -0.0684,0.150453 -0.34726,0.138964 -0.30823,-0.01269 -0.37092,-0.07539 -0.15986,-0.159852 z"
           id="path907" />
        <path
           style="fill:#939393;stroke-width:0.264583"
           d="m 42.192516,10.402445 c 0,-0.05494 0.208359,-0.263301 0.46302,-0.4630203 0.419644,-0.3291075 0.429003,-0.3197492 0.0999,0.099894 -0.345643,0.44073 -0.562915,0.580888 -0.562915,0.363126 z"
           id="path905" />
        <path
           style="fill:#6a6a6a;stroke-width:0.264583"
           d="m 60.382619,126.74377 c 0.181901,-0.0734 0.479557,-0.0734 0.661458,0 0.181901,0.0734 0.03307,0.13346 -0.330729,0.13346 -0.363802,0 -0.51263,-0.0601 -0.330729,-0.13346 z m 80.962491,0 c 0.18191,-0.0734 0.47956,-0.0734 0.66146,0 0.1819,0.0734 0.0331,0.13346 -0.33073,0.13346 -0.3638,0 -0.51263,-0.0601 -0.33073,-0.13346 z m 19.11615,-8.15914 c 0.34178,-0.36381 0.68094,-0.66146 0.7537,-0.66146 0.0728,0 -0.14734,0.29765 -0.48912,0.66146 -0.34177,0.3638 -0.68094,0.66145 -0.7537,0.66145 -0.0728,0 0.14734,-0.29765 0.48912,-0.66145 z m -118.955341,-0.19844 -0.504028,-0.59531 0.595312,0.50403 c 0.559447,0.47366 0.715762,0.68659 0.504028,0.68659 -0.05021,0 -0.318097,-0.26789 -0.595312,-0.59531 z M 81.846263,76.449733 c -0.329107,-0.419645 -0.319749,-0.429004 0.0999,-0.0999 0.254662,0.19972 0.463021,0.40808 0.463021,0.463021 0,0.217762 -0.217273,0.0776 -0.562917,-0.363125 z M 134.3998,46.485672 c 11.93204,-11.932708 21.75416,-21.695832 21.82692,-21.695832 0.0728,0 -9.63029,9.763124 -21.56233,21.695832 -11.93204,11.932708 -21.75416,21.695832 -21.82692,21.695832 -0.0728,0 9.63029,-9.763124 21.56233,-21.695832 z M 67.591906,46.287234 46.028974,24.657548 67.65866,46.22048 c 11.896328,11.859611 21.629687,21.59297 21.629687,21.629686 0,0.03671 -0.03004,0.06676 -0.06676,0.06676 -0.03672,0 -9.770075,-9.733359 -21.629686,-21.629687 z M 41.531057,11.031507 c 0.263389,-0.291042 0.538421,-0.529167 0.611181,-0.529167 0.07276,0 -0.08321,0.238125 -0.346597,0.529167 -0.263389,0.291042 -0.538421,0.529167 -0.611181,0.529167 -0.07276,0 0.08321,-0.238125 0.346597,-0.529167 z m 118.910173,-0.198438 -0.64143,-0.727604 0.72761,0.641433 c 0.40018,0.352789 0.7276,0.68021 0.7276,0.727604 0,0.207506 -0.21426,0.03862 -0.81378,-0.641433 z M 60.382619,2.6541954 c 0.181901,-0.073398 0.479557,-0.073398 0.661458,0 0.181901,0.073399 0.03307,0.1334522 -0.330729,0.1334522 -0.363802,0 -0.51263,-0.060053 -0.330729,-0.1334522 z m 80.962491,0 c 0.18191,-0.073398 0.47956,-0.073398 0.66146,0 0.1819,0.073399 0.0331,0.1334522 -0.33073,0.1334522 -0.3638,0 -0.51263,-0.060053 -0.33073,-0.1334522 z"
           id="path903" />
        <path
           style="fill:#525252;stroke-width:0.264583"
           d="m 81.152409,126.72059 c 11.023203,-0.0382 29.061171,-0.0382 40.084371,0 11.02321,0.0382 2.00422,0.0695 -20.04218,0.0695 -22.046409,0 -31.065393,-0.0313 -20.042191,-0.0695 z M 49.5671,110.58098 c -0.329108,-0.41964 -0.31975,-0.429 0.09989,-0.0999 0.254662,0.19972 0.463021,0.40808 0.463021,0.46302 0,0.21776 -0.217272,0.0776 -0.562915,-0.36313 z M 44.701618,69.372129 c -1e-5,-16.589374 0.03173,-23.414872 0.07053,-15.167773 0.0388,8.247099 0.03881,21.820223 1.9e-5,30.162498 -0.03879,8.342275 -0.07054,1.594649 -0.07055,-14.994725 z M 157.67868,69.239837 c 0,-16.516613 0.0317,-23.27341 0.0706,-15.015103 0.0388,8.258307 0.0388,21.7719 0,30.030207 -0.0388,8.258307 -0.0706,1.50151 -0.0706,-15.015104 z m -32.27471,2.116667 c 2.76202,-2.764896 5.08139,-5.027083 5.15415,-5.027083 0.0728,0 -2.12754,2.262187 -4.88957,5.027083 -2.76202,2.764896 -5.08139,5.027083 -5.15415,5.027083 -0.0728,0 2.12755,-2.262187 4.88957,-5.027083 z m -51.198677,-2.579687 -7.274237,-7.342188 7.342187,7.274237 c 6.823054,6.759908 7.461358,7.410138 7.274237,7.410138 -0.03737,0 -3.341357,-3.303985 -7.342187,-7.342187 z m 26.658577,3.991959 c 0.1819,-0.0734 0.47955,-0.0734 0.66146,0 0.1819,0.0734 0.0331,0.133453 -0.33073,0.133453 -0.36381,0 -0.51263,-0.06006 -0.33073,-0.133453 z M 81.152409,2.6310113 c 11.023203,-0.038223 29.061171,-0.038223 40.084371,0 11.02321,0.038224 2.00422,0.069497 -20.04218,0.069497 -22.046409,0 -31.065393,-0.031274 -20.042191,-0.069497 z"
           id="path901" />
        <path
           style="fill:#343434;stroke-width:0.264583"
           d="m 151.73001,111.47327 c 0,-0.0549 0.20836,-0.2633 0.46302,-0.46302 0.41965,-0.32911 0.429,-0.31975 0.0999,0.0999 -0.34565,0.44073 -0.56292,0.58089 -0.56292,0.36312 z M 48.77335,109.78723 c -0.329108,-0.41964 -0.31975,-0.429 0.09989,-0.0999 0.254662,0.19972 0.463021,0.40808 0.463021,0.46302 0,0.21776 -0.217272,0.0776 -0.562915,-0.36313 z m 104.27958,0.36313 c 0,-0.0549 0.20836,-0.2633 0.46302,-0.46302 0.41964,-0.32911 0.429,-0.31975 0.0999,0.0999 -0.34564,0.44073 -0.56291,0.58089 -0.56291,0.36313 z M 33.482154,100.04175 c 0.0127,-0.30823 0.07539,-0.370923 0.159853,-0.159857 0.07643,0.190997 0.06703,0.419197 -0.02089,0.507117 -0.08792,0.0879 -0.150452,-0.0683 -0.138964,-0.34726 z m 135.202076,0 c 0.0127,-0.30823 0.0754,-0.370923 0.15985,-0.159857 0.0764,0.190997 0.067,0.419197 -0.0209,0.507117 -0.0879,0.0879 -0.15046,-0.0683 -0.13897,-0.34726 z m -11.1125,-0.52917 c 0.0127,-0.308227 0.0754,-0.37092 0.15985,-0.159854 0.0764,0.190995 0.067,0.419201 -0.0209,0.507119 -0.0879,0.08792 -0.15046,-0.06835 -0.13897,-0.347265 z M 99.557487,83.875764 c 0.190994,-0.07643 0.419198,-0.06703 0.507123,0.02087 0.0879,0.08792 -0.06836,0.150453 -0.34727,0.138965 -0.308226,-0.0127 -0.370919,-0.07539 -0.159853,-0.159851 z m 2.910413,0 c 0.191,-0.07643 0.4192,-0.06703 0.50712,0.02087 0.0879,0.08792 -0.0683,0.150453 -0.34726,0.138965 -0.30823,-0.0127 -0.37092,-0.07539 -0.15986,-0.159851 z m -2.38125,-11.1125 c 0.191,-0.07643 0.4192,-0.06703 0.50712,0.02088 0.0879,0.08792 -0.0684,0.150453 -0.34726,0.138964 -0.30823,-0.0127 -0.370923,-0.07539 -0.15986,-0.15985 z m 1.85209,0 c 0.19099,-0.07643 0.4192,-0.06703 0.50712,0.02088 0.0879,0.08792 -0.0684,0.150453 -0.34727,0.138964 -0.30823,-0.0127 -0.37092,-0.07539 -0.15985,-0.15985 z M 143.9248,52.835671 c 7.4205,-7.421562 13.55134,-13.493749 13.6241,-13.493749 0.0728,0 -5.93902,6.072187 -13.35951,13.493749 -7.4205,7.421563 -13.55134,13.49375 -13.6241,13.49375 -0.0728,0 5.93902,-6.072187 13.35951,-13.49375 z M 55.817375,50.388276 44.706057,39.20963 55.884702,50.32095 c 10.390074,10.327494 11.297552,11.245971 11.11132,11.245971 -0.03703,0 -5.067422,-5.03039 -11.178647,-11.178645 z M 33.482154,29.398 c 0.0127,-0.308226 0.07539,-0.370919 0.159853,-0.159853 0.07643,0.190994 0.06703,0.419197 -0.02089,0.507119 -0.08792,0.08792 -0.150452,-0.06835 -0.138964,-0.347266 z m 135.202076,0 c 0.0127,-0.308226 0.0754,-0.370919 0.15985,-0.159853 0.0764,0.190994 0.067,0.419197 -0.0209,0.507119 -0.0879,0.08792 -0.15046,-0.06835 -0.13897,-0.347266 z M 48.807099,19.679966 c 0,-0.04554 0.386953,-0.432488 0.859895,-0.859896 l 0.859896,-0.777105 -0.777105,0.859896 c -0.724371,0.801543 -0.942686,0.981512 -0.942686,0.777105 z m 103.702421,-0.909397 -0.9118,-0.992187 0.99219,0.911798 c 0.5457,0.501489 0.99218,0.947973 0.99218,0.992187 0,0.202041 -0.22389,0.01171 -1.07257,-0.911798 z"
           id="path899" />
        <path
           style="fill:#000000;stroke-width:0.264583"
           d="m 55.979412,126.0976 c -11.198133,-2.36096 -19.423964,-10.70169 -21.903919,-22.20989 -0.453201,-2.10307 -0.481935,-4.437088 -0.481935,-39.145789 0,-34.708702 0.02873,-37.042715 0.481935,-39.145788 C 36.426991,14.684038 43.928843,6.6392647 54.49564,3.698146 l 2.645833,-0.7364304 h 44.053127 44.05312 l 2.64583,0.7364304 c 11.48602,3.1969719 19.54605,12.729841 20.75931,24.552737 0.37493,3.653568 0.37493,69.328508 0,72.982077 -1.21295,11.81985 -9.32111,21.40565 -20.77819,24.56481 l -2.62695,0.72436 -43.39167,0.0497 c -42.334858,0.0485 -43.452182,0.0369 -45.876638,-0.47422 z m 88.749698,-10.95519 c 6.58545,-1.66836 11.49654,-6.93305 12.70841,-13.62341 0.28876,-1.594128 0.36126,-7.903085 0.36868,-32.080725 0.005,-16.552994 -0.0782,-30.096353 -0.18507,-30.096353 -0.10686,0 -8.88772,8.675851 -19.51302,19.279671 -12.66641,12.640799 -19.89976,19.667399 -21.00607,20.405663 -9.72662,6.49071 -22.088266,6.49071 -31.814884,0 C 84.180838,78.288992 76.947487,71.262392 64.281079,58.621593 53.65578,48.017773 44.871185,39.341922 44.759759,39.341922 c -0.111427,0 -0.169094,14.019609 -0.128148,31.154686 l 0.07445,31.154682 0.747086,2.11413 c 1.59479,4.51299 4.491451,7.91165 8.418205,9.87711 4.005734,2.00498 0.435236,1.86262 47.201508,1.88198 36.69369,0.0152 42.28114,-0.0337 43.65625,-0.3821 z m -40.6241,-42.573096 c 2.60257,-0.467204 4.94015,-1.44136 6.96058,-2.900727 0.90111,-0.650881 11.50522,-11.059319 23.56469,-23.129864 l 21.9263,-21.946443 -1.01366,-1.929007 c -1.80787,-3.44039 -5.15534,-6.280571 -9.30525,-7.895104 l -1.7837,-0.693954 H 101.1946 57.935223 l -1.783702,0.693954 c -4.116447,1.601514 -7.51072,4.48011 -9.301872,7.888679 l -1.017044,1.935438 22.0586,22.074004 c 15.718845,15.729822 22.59472,22.435543 23.923984,23.331938 2.513221,1.69481 6.163259,2.841644 9.247111,2.905424 0.58209,0.01204 1.95131,-0.138411 3.04271,-0.334338 z"
           id="path897" />
      </g>
    </g>
  </g>
</svg>
