<?xml version="1.0" encoding="UTF-8" standalone="no"?>
<svg
   xmlns:dc="http://purl.org/dc/elements/1.1/"
   xmlns:cc="http://creativecommons.org/ns#"
   xmlns:rdf="http://www.w3.org/1999/02/22-rdf-syntax-ns#"
   xmlns:svg="http://www.w3.org/2000/svg"
   xmlns="http://www.w3.org/2000/svg"
   xmlns:sodipodi="http://sodipodi.sourceforge.net/DTD/sodipodi-0.dtd"
   xmlns:inkscape="http://www.inkscape.org/namespaces/inkscape"
   width="135.28786mm"
   height="96.14035mm"
   viewBox="0 0 135.28786 96.14035"
   version="1.1"
   id="svg8"
   inkscape:version="1.0.2-2 (e86c870879, 2021-01-15)"
   sodipodi:docname="menu.svg">
  <defs
     id="defs2" />
  <sodipodi:namedview
     id="base"
     pagecolor="#ffffff"
     bordercolor="#666666"
     borderopacity="1.0"
     inkscape:pageopacity="0.0"
     inkscape:pageshadow="2"
     inkscape:zoom="0.35"
     inkscape:cx="264.01713"
     inkscape:cy="287.57086"
     inkscape:document-units="mm"
     inkscape:current-layer="layer1"
     inkscape:document-rotation="0"
     showgrid="false"
     fit-margin-top="0"
     fit-margin-left="0"
     fit-margin-right="0"
     fit-margin-bottom="0"
     inkscape:window-width="1267"
     inkscape:window-height="1040"
     inkscape:window-x="75"
     inkscape:window-y="0"
     inkscape:window-maximized="0" />
  <metadata
     id="metadata5">
    <rdf:RDF>
      <cc:Work
         rdf:about="">
        <dc:format>image/svg+xml</dc:format>
        <dc:type
           rdf:resource="http://purl.org/dc/dcmitype/StillImage" />
        <dc:title></dc:title>
      </cc:Work>
    </rdf:RDF>
  </metadata>
  <g
     inkscape:label="Layer 1"
     inkscape:groupmode="layer"
     id="layer1"
     transform="translate(-35.9788,-72.080211)">
    <g
       id="g861"
       transform="translate(-1.5119049,-85.422619)">
      <path
         style="fill:#d4d4d4;stroke-width:0.264583"
         d="m 39.691552,251.19352 c -0.329108,-0.41965 -0.319749,-0.42901 0.09989,-0.0999 0.254661,0.19972 0.463021,0.40808 0.463021,0.46302 0,0.21776 -0.217273,0.0776 -0.562916,-0.36312 z m 130.605618,-0.0661 c 0.26339,-0.29104 0.53842,-0.52917 0.61118,-0.52917 0.0728,0 -0.0832,0.23813 -0.3466,0.52917 -0.26339,0.29104 -0.53842,0.52917 -0.61118,0.52917 -0.0728,0 0.0832,-0.23813 0.3466,-0.52917 z M 39.593009,160.11071 c 0.263389,-0.29104 0.538421,-0.52917 0.611181,-0.52917 0.07276,0 -0.08321,0.23813 -0.346597,0.52917 -0.26339,0.29104 -0.538421,0.52917 -0.611181,0.52917 -0.07276,0 0.08321,-0.23813 0.346597,-0.52917 z m 130.679021,-0.0662 -0.50403,-0.59531 0.59532,0.50403 c 0.55944,0.47366 0.71576,0.6866 0.50402,0.6866 -0.0502,0 -0.31809,-0.2679 -0.59531,-0.59532 z"
         id="path871" />
      <path
         style="fill:#aaaaaa;stroke-width:0.264583"
         d="m 75.11332,253.57478 c 16.480234,-0.0376 43.44789,-0.0376 59.92812,0 16.48024,0.0376 2.99641,0.0684 -29.96406,0.0684 -32.960466,0 -46.444294,-0.0308 -29.96406,-0.0684 z m 0,-96.04375 c 16.480234,-0.0376 43.44789,-0.0376 59.92812,0 16.48024,0.0376 2.99641,0.0684 -29.96406,0.0684 -32.960466,0 -46.444294,-0.0308 -29.96406,-0.0684 z"
         id="path869" />
      <path
         style="fill:#545454;stroke-width:0.264583"
         d="m 75.245612,236.64144 c 16.407473,-0.0376 43.256068,-0.0376 59.663538,0 16.40747,0.0376 2.98318,0.0684 -29.83177,0.0684 -32.814945,0 -46.239242,-0.0308 -29.831768,-0.0684 z m -35.55406,-25.13542 c -0.329108,-0.41965 -0.319749,-0.429 0.09989,-0.0999 0.254661,0.19972 0.463021,0.40808 0.463021,0.46302 0,0.21777 -0.217273,0.0776 -0.562916,-0.36312 z m 130.208738,0.36312 c 0,-0.0549 0.20836,-0.2633 0.46303,-0.46302 0.41964,-0.3291 0.429,-0.31975 0.0999,0.0999 -0.34564,0.44073 -0.56292,0.58089 -0.56292,0.36312 z M 39.460718,199.96289 c 0,-0.0549 0.208359,-0.2633 0.46302,-0.46302 0.419644,-0.3291 0.429003,-0.31975 0.09989,0.0999 -0.345643,0.44073 -0.562915,0.58089 -0.562915,0.36312 z m 130.670412,-0.36312 c -0.32911,-0.41965 -0.31975,-0.429 0.0999,-0.0999 0.25467,0.19972 0.46302,0.40808 0.46302,0.46302 0,0.21777 -0.21727,0.0776 -0.56291,-0.36312 z M 75.245612,174.46436 c 16.407473,-0.0376 43.256068,-0.0376 59.663538,0 16.40747,0.0376 2.98318,0.0684 -29.83177,0.0684 -32.814945,0 -46.239242,-0.0308 -29.831768,-0.0684 z"
         id="path867" />
      <path
         style="fill:#2e2e2e;stroke-width:0.264583"
         d="m 39.705276,250.92893 -0.641433,-0.7276 0.727604,0.64143 c 0.400182,0.35279 0.727604,0.68021 0.727604,0.72761 0,0.2075 -0.214259,0.0386 -0.813775,-0.64144 z m 130.459604,0.0661 c 0.34177,-0.3638 0.68094,-0.66146 0.7537,-0.66146 0.0728,0 -0.14734,0.29766 -0.48912,0.66146 -0.34177,0.3638 -0.68094,0.66146 -0.7537,0.66146 -0.0728,0 0.14734,-0.29766 0.48912,-0.66146 z m 2.40214,-6.63663 c 0.0127,-0.30823 0.0754,-0.37092 0.15985,-0.15985 0.0764,0.19099 0.067,0.4192 -0.0209,0.50711 -0.0879,0.0879 -0.15045,-0.0684 -0.13896,-0.34726 z m 0,-77.52291 c 0.0127,-0.30823 0.0754,-0.37092 0.15985,-0.15986 0.0764,0.191 0.067,0.4192 -0.0209,0.50712 -0.0879,0.0879 -0.15045,-0.0683 -0.13896,-0.34726 z"
         id="path865" />
      <path
         style="fill:#000000;stroke-width:0.264583"
         d="m 43.561759,253.13968 c -1.709792,-0.54261 -2.605166,-1.10404 -3.761595,-2.35861 -1.382324,-1.49965 -1.808897,-2.33519 -2.15895,-4.2288 -0.718561,-3.88705 1.489771,-7.79972 5.181872,-9.18111 1.406748,-0.52634 1.987018,-0.53129 62.261384,-0.53129 59.41079,0 60.87292,0.012 62.18184,0.50933 4.60116,1.7483 6.73634,7.29749 4.48382,11.65311 -0.69433,1.34258 -2.5645,3.06093 -4.09879,3.76605 l -1.32292,0.60797 -60.85416,0.0496 c -48.557362,0.0396 -61.068025,-0.0183 -61.912501,-0.28626 z m 0.696314,-39.33739 c -1.833497,-0.36303 -3.369726,-1.24216 -4.640576,-2.65565 -2.018756,-2.24534 -2.62223,-5.40069 -1.61331,-8.4354 0.66159,-1.98999 2.8804,-4.21897 4.898727,-4.92119 1.413464,-0.49177 3.088351,-0.50538 62.174466,-0.50538 59.08612,0 60.761,0.0136 62.17447,0.50538 2.01833,0.70222 4.23714,2.9312 4.89873,4.92119 0.61485,1.8494 0.61485,3.9662 0,5.8156 -0.62325,1.87464 -2.86058,4.18392 -4.76383,4.91701 -1.29095,0.49725 -2.78048,0.5105 -61.64791,0.54842 -33.178749,0.0214 -60.845094,-0.0641 -61.480767,-0.18998 z M 42.819827,173.8768 c -1.9793,-0.77338 -3.482083,-2.16871 -4.447276,-4.1293 -2.090982,-4.24738 -0.346908,-9.1301 3.998583,-11.19445 l 1.455208,-0.6913 h 61.251038 61.25104 l 1.45521,0.6913 c 2.59884,1.2346 4.21157,3.3095 4.71326,6.06397 0.72129,3.96019 -1.46887,7.84252 -5.23058,9.27186 -1.30929,0.49749 -2.75614,0.50904 -62.25791,0.49695 -58.944604,-0.012 -60.95864,-0.0285 -62.188573,-0.50903 z"
         id="path863" />
    </g>
  </g>
</svg>
